<?plantuml 1.2026.2?><svg xmlns="http://www.w3.org/2000/svg" xmlns:xlink="http://www.w3.org/1999/xlink" contentStyleType="text/css" data-diagram-type="SEQUENCE" height="1232px" preserveAspectRatio="none" style="width:867px;height:1232px;background:#FFFFFF;" version="1.1" viewBox="0 0 867 1232" width="867px" zoomAndPan="magnify"><title>Sequence Jetson &#8596; WebQuanLi</title><defs/><g><text fill="#000000" font-family="Arial" font-size="14" font-weight="bold" lengthAdjust="spacing" textLength="214.7031" x="322.2034" y="28.1318">Sequence Jetson &#8596; WebQuanLi</text><rect fill="none" height="102.4951" style="stroke:#000000;stroke-width:1.5;" width="721.9136" x="10" y="452.6846"/><rect fill="none" height="161.6924" style="stroke:#000000;stroke-width:1.5;" width="840.1099" x="10" y="756.8721"/><g class="participant-lifeline" data-entity-uid="part1" data-qualified-name="Jetson" id="part1-lifeline"><g><title>Jetson Version3</title><rect fill="#000000" fill-opacity="0.00000" height="1034.0083" width="8" x="69.1963" y="118.1973"/><line style="stroke:#9AA5B1;stroke-width:0.5;stroke-dasharray:5,5;" x1="73" x2="73" y1="118.1973" y2="1152.2056"/></g></g><g class="participant-lifeline" data-entity-uid="part2" data-qualified-name="WS" id="part2-lifeline"><g><title>WebQuanLi WebSocket</title><rect fill="#000000" fill-opacity="0.00000" height="1034.0083" width="8" x="262.3042" y="118.1973"/><line style="stroke:#9AA5B1;stroke-width:0.5;stroke-dasharray:5,5;" x1="265.6011" x2="265.6011" y1="118.1973" y2="1152.2056"/></g></g><g class="participant-lifeline" data-entity-uid="part3" data-qualified-name="Session" id="part3-lifeline"><g><title>Session Service</title><rect fill="#000000" fill-opacity="0.00000" height="1034.0083" width="8" x="427.2095" y="118.1973"/><line style="stroke:#9AA5B1;stroke-width:0.5;stroke-dasharray:5,5;" x1="431.02" x2="431.02" y1="118.1973" y2="1152.2056"/></g></g><g class="participant-lifeline" data-entity-uid="part4" data-qualified-name="DB" id="part4-lifeline"><g><title>SQLite</title><rect fill="#000000" fill-opacity="0.00000" height="1034.0083" width="8" x="577.6865" y="118.1973"/><line style="stroke:#9AA5B1;stroke-width:0.5;stroke-dasharray:5,5;" x1="581.2866" x2="581.2866" y1="118.1973" y2="1152.2056"/></g></g><g class="participant-lifeline" data-entity-uid="part5" data-qualified-name="EventBus" id="part5-lifeline"><g><title>EventBus.SSE</title><rect fill="#000000" fill-opacity="0.00000" height="1034.0083" width="8" x="665" y="118.1973"/><line style="stroke:#9AA5B1;stroke-width:0.5;stroke-dasharray:5,5;" x1="668.0864" x2="668.0864" y1="118.1973" y2="1152.2056"/></g></g><g class="participant-lifeline" data-entity-uid="part6" data-qualified-name="Dashboard" id="part6-lifeline"><g><title>Dashboard</title><rect fill="#000000" fill-opacity="0.00000" height="1034.0083" width="8" x="798.8652" y="118.1973"/><line style="stroke:#9AA5B1;stroke-width:0.5;stroke-dasharray:5,5;" x1="802.6206" x2="802.6206" y1="118.1973" y2="1152.2056"/></g></g><g class="participant participant-head" data-entity-uid="part1" data-qualified-name="Jetson" id="part1-head"><text fill="#000000" font-family="Arial" font-size="14" lengthAdjust="spacing" textLength="100.3926" x="20" y="115.2305">Jetson Version3</text><ellipse cx="73.1963" cy="50.5986" fill="#E9F8EF" rx="8" ry="8" style="stroke:#2F80ED;stroke-width:0.5;"/><path d="M73.1963,58.5986 L73.1963,85.5986 M60.1963,66.5986 L86.1963,66.5986 M73.1963,85.5986 L60.1963,100.5986 M73.1963,85.5986 L86.1963,100.5986" fill="none" style="stroke:#2F80ED;stroke-width:0.5;"/></g><g class="participant participant-tail" data-entity-uid="part1" data-qualified-name="Jetson" id="part1-tail"><text fill="#000000" font-family="Arial" font-size="14" lengthAdjust="spacing" textLength="100.3926" x="20" y="1164.3374">Jetson Version3</text><ellipse cx="73.1963" cy="1175.8042" fill="#E9F8EF" rx="8" ry="8" style="stroke:#2F80ED;stroke-width:0.5;"/><path d="M73.1963,1183.8042 L73.1963,1210.8042 M60.1963,1191.8042 L86.1963,1191.8042 M73.1963,1210.8042 L60.1963,1225.8042 M73.1963,1210.8042 L86.1963,1225.8042" fill="none" style="stroke:#2F80ED;stroke-width:0.5;"/></g><g class="participant participant-head" data-entity-uid="part2" data-qualified-name="WS" id="part2-head"><rect fill="#FFF4E6" height="30.0986" rx="2.5" ry="2.5" style="stroke:#52606D;stroke-width:0.5;" width="163.4063" x="184.6011" y="87.0986"/><text fill="#000000" font-family="Arial" font-size="14" lengthAdjust="spacing" textLength="149.4063" x="191.6011" y="107.2305">WebQuanLi WebSocket</text></g><g class="participant participant-tail" data-entity-uid="part2" data-qualified-name="WS" id="part2-tail"><rect fill="#FFF4E6" height="30.0986" rx="2.5" ry="2.5" style="stroke:#52606D;stroke-width:0.5;" width="163.4063" x="184.6011" y="1151.2056"/><text fill="#000000" font-family="Arial" font-size="14" lengthAdjust="spacing" textLength="149.4063" x="191.6011" y="1171.3374">WebQuanLi WebSocket</text></g><g class="participant participant-head" data-entity-uid="part3" data-qualified-name="Session" id="part3-head"><rect fill="#FFF4E6" height="30.0986" rx="2.5" ry="2.5" style="stroke:#52606D;stroke-width:0.5;" width="114.3789" x="374.02" y="87.0986"/><text fill="#000000" font-family="Arial" font-size="14" lengthAdjust="spacing" textLength="100.3789" x="381.02" y="107.2305">Session Service</text></g><g class="participant participant-tail" data-entity-uid="part3" data-qualified-name="Session" id="part3-tail"><rect fill="#FFF4E6" height="30.0986" rx="2.5" ry="2.5" style="stroke:#52606D;stroke-width:0.5;" width="114.3789" x="374.02" y="1151.2056"/><text fill="#000000" font-family="Arial" font-size="14" lengthAdjust="spacing" textLength="100.3789" x="381.02" y="1171.3374">Session Service</text></g><g class="participant participant-head" data-entity-uid="part4" data-qualified-name="DB" id="part4-head"><text fill="#000000" font-family="Arial" font-size="14" lengthAdjust="spacing" textLength="42.7998" x="557.2866" y="115.2305">SQLite</text><path d="M563.6865,66.0986 C563.6865,56.0986 581.6865,56.0986 581.6865,56.0986 C581.6865,56.0986 599.6865,56.0986 599.6865,66.0986 L599.6865,92.0986 C599.6865,102.0986 581.6865,102.0986 581.6865,102.0986 C581.6865,102.0986 563.6865,102.0986 563.6865,92.0986 L563.6865,66.0986" fill="#F2F0FF" style="stroke:#181818;stroke-width:0.5;"/><path d="M563.6865,66.0986 C563.6865,76.0986 581.6865,76.0986 581.6865,76.0986 C581.6865,76.0986 599.6865,76.0986 599.6865,66.0986" fill="none" style="stroke:#181818;stroke-width:0.5;"/></g><g class="participant participant-tail" data-entity-uid="part4" data-qualified-name="DB" id="part4-tail"><text fill="#000000" font-family="Arial" font-size="14" lengthAdjust="spacing" textLength="42.7998" x="557.2866" y="1164.3374">SQLite</text><path d="M563.6865,1177.3042 C563.6865,1167.3042 581.6865,1167.3042 581.6865,1167.3042 C581.6865,1167.3042 599.6865,1167.3042 599.6865,1177.3042 L599.6865,1203.3042 C599.6865,1213.3042 581.6865,1213.3042 581.6865,1213.3042 C581.6865,1213.3042 563.6865,1213.3042 563.6865,1203.3042 L563.6865,1177.3042" fill="#F2F0FF" style="stroke:#181818;stroke-width:0.5;"/><path d="M563.6865,1177.3042 C563.6865,1187.3042 581.6865,1187.3042 581.6865,1187.3042 C581.6865,1187.3042 599.6865,1187.3042 599.6865,1177.3042" fill="none" style="stroke:#181818;stroke-width:0.5;"/></g><g class="participant participant-head" data-entity-uid="part5" data-qualified-name="EventBus" id="part5-head"><rect fill="#F4F4F4" height="30.0986" rx="2.5" ry="2.5" style="stroke:#52606D;stroke-width:0.5;" width="105.8271" x="616.0864" y="87.0986"/><text fill="#000000" font-family="Arial" font-size="14" lengthAdjust="spacing" textLength="91.8271" x="623.0864" y="107.2305">EventBus/SSE</text></g><g class="participant participant-tail" data-entity-uid="part5" data-qualified-name="EventBus" id="part5-tail"><rect fill="#F4F4F4" height="30.0986" rx="2.5" ry="2.5" style="stroke:#52606D;stroke-width:0.5;" width="105.8271" x="616.0864" y="1151.2056"/><text fill="#000000" font-family="Arial" font-size="14" lengthAdjust="spacing" textLength="91.8271" x="623.0864" y="1171.3374">EventBus/SSE</text></g><g class="participant participant-head" data-entity-uid="part6" data-qualified-name="Dashboard" id="part6-head"><text fill="#000000" font-family="Arial" font-size="14" lengthAdjust="spacing" textLength="68.4893" x="765.6206" y="115.2305">Dashboard</text><ellipse cx="802.8652" cy="50.5986" fill="#E8F2FF" rx="8" ry="8" style="stroke:#2F80ED;stroke-width:0.5;"/><path d="M802.8652,58.5986 L802.8652,85.5986 M789.8652,66.5986 L815.8652,66.5986 M802.8652,85.5986 L789.8652,100.5986 M802.8652,85.5986 L815.8652,100.5986" fill="none" style="stroke:#2F80ED;stroke-width:0.5;"/></g><g class="participant participant-tail" data-entity-uid="part6" data-qualified-name="Dashboard" id="part6-tail"><text fill="#000000" font-family="Arial" font-size="14" lengthAdjust="spacing" textLength="68.4893" x="765.6206" y="1164.3374">Dashboard</text><ellipse cx="802.8652" cy="1175.8042" fill="#E8F2FF" rx="8" ry="8" style="stroke:#2F80ED;stroke-width:0.5;"/><path d="M802.8652,1183.8042 L802.8652,1210.8042 M789.8652,1191.8042 L815.8652,1191.8042 M802.8652,1210.8042 L789.8652,1225.8042 M802.8652,1210.8042 L815.8652,1225.8042" fill="none" style="stroke:#2F80ED;stroke-width:0.5;"/></g><rect fill="#EEEEEE" height="3" style="stroke:#EEEEEE;stroke-width:1;" width="860.1099" x="0" y="148.6716"/><line style="stroke:#000000;stroke-width:1;" x1="0" x2="860.1099" y1="148.6716" y2="148.6716"/><line style="stroke:#000000;stroke-width:1;" x1="0" x2="860.1099" y1="151.6716" y2="151.6716"/><rect fill="#EEEEEE" height="22.9487" style="stroke:#000000;stroke-width:2;" width="107.8818" x="376.114" y="138.1973"/><text fill="#000000" font-family="Arial" font-size="13" font-weight="bold" lengthAdjust="spacing" textLength="90.27" x="382.114" y="154.3911">K&#7871;t n&#7889;i thi&#7871;t b&#7883;</text><g class="message" data-entity-1="part1" data-entity-2="part2" id="msg1"><polygon fill="#52606D" points="254.3042,188.0947,264.3042,192.0947,254.3042,196.0947,258.3042,192.0947" style="stroke:#52606D;stroke-width:1;"/><line style="stroke:#52606D;stroke-width:1;" x1="73.1963" x2="260.3042" y1="192.0947" y2="192.0947"/><text fill="#000000" font-family="Arial" font-size="13" lengthAdjust="spacing" textLength="169.1079" x="80.1963" y="187.3398">K&#7871;t n&#7889;i /ws/jetson/{device_id}</text></g><g class="message" data-entity-1="part2" data-entity-2="part4" id="msg2"><polygon fill="#52606D" points="569.6865,217.0435,579.6865,221.0435,569.6865,225.0435,573.6865,221.0435" style="stroke:#52606D;stroke-width:1;"/><line style="stroke:#52606D;stroke-width:1;" x1="266.3042" x2="575.6865" y1="221.0435" y2="221.0435"/><text fill="#000000" font-family="Arial" font-size="13" lengthAdjust="spacing" textLength="66.46" x="273.3042" y="216.2886">T&#236;m vehicle</text></g><g class="message" data-entity-1="part2" data-entity-2="part5" id="msg3"><polygon fill="#52606D" points="657,245.9922,667,249.9922,657,253.9922,661,249.9922" style="stroke:#52606D;stroke-width:1;"/><line style="stroke:#52606D;stroke-width:1;" x1="266.3042" x2="663" y1="249.9922" y2="249.9922"/><text fill="#000000" font-family="Arial" font-size="13" lengthAdjust="spacing" textLength="105.168" x="273.3042" y="245.2373">connection=online</text></g><g class="message" data-entity-1="part6" data-entity-2="part5" id="msg4"><polygon fill="#52606D" points="680,274.9409,670,278.9409,680,282.9409,676,278.9409" style="stroke:#52606D;stroke-width:1;"/><line style="stroke:#52606D;stroke-width:1;" x1="674" x2="801.8652" y1="278.9409" y2="278.9409"/><text fill="#000000" font-family="Arial" font-size="13" lengthAdjust="spacing" textLength="48.9785" x="686" y="274.186">M&#7903; SSE</text></g><rect fill="#EEEEEE" height="3" style="stroke:#EEEEEE;stroke-width:1;" width="860.1099" x="0" y="307.4153"/><line style="stroke:#000000;stroke-width:1;" x1="0" x2="860.1099" y1="307.4153" y2="307.4153"/><line style="stroke:#000000;stroke-width:1;" x1="0" x2="860.1099" y1="310.4153" y2="310.4153"/><rect fill="#EEEEEE" height="22.9487" style="stroke:#000000;stroke-width:2;" width="162.8335" x="348.6382" y="296.9409"/><text fill="#000000" font-family="Arial" font-size="13" font-weight="bold" lengthAdjust="spacing" textLength="145.2217" x="354.6382" y="313.1348">RFID v&#224; x&#225;c minh t&#224;i x&#7871;</text><g class="message" data-entity-1="part1" data-entity-2="part2" id="msg5"><polygon fill="#52606D" points="254.3042,346.8384,264.3042,350.8384,254.3042,354.8384,258.3042,350.8384" style="stroke:#52606D;stroke-width:1;"/><line style="stroke:#52606D;stroke-width:1;" x1="73.1963" x2="260.3042" y1="350.8384" y2="350.8384"/><text fill="#000000" font-family="Arial" font-size="13" lengthAdjust="spacing" textLength="103.3081" x="80.1963" y="346.0835">RFID driver probe</text></g><g class="message" data-entity-1="part2" data-entity-2="part3" id="msg6"><polygon fill="#52606D" points="419.2095,375.7871,429.2095,379.7871,419.2095,383.7871,423.2095,379.7871" style="stroke:#52606D;stroke-width:1;"/><line style="stroke:#52606D;stroke-width:1;" x1="266.3042" x2="425.2095" y1="379.7871" y2="379.7871"/><text fill="#000000" font-family="Arial" font-size="13" lengthAdjust="spacing" textLength="127.8926" x="273.3042" y="375.0322">resolve_driver_by_rfid</text></g><g class="message" data-entity-1="part3" data-entity-2="part4" id="msg7"><polygon fill="#52606D" points="569.6865,404.7358,579.6865,408.7358,569.6865,412.7358,573.6865,408.7358" style="stroke:#52606D;stroke-width:1;"/><line style="stroke:#52606D;stroke-width:1;" x1="431.2095" x2="575.6865" y1="408.7358" y2="408.7358"/><text fill="#000000" font-family="Arial" font-size="13" lengthAdjust="spacing" textLength="86.6899" x="438.2095" y="403.981">SELECT driver</text></g><g class="message" data-entity-1="part2" data-entity-2="part5" id="msg8"><polygon fill="#52606D" points="657,433.6846,667,437.6846,657,441.6846,661,437.6846" style="stroke:#52606D;stroke-width:1;"/><line style="stroke:#52606D;stroke-width:1;" x1="266.3042" x2="663" y1="437.6846" y2="437.6846"/><text fill="#000000" font-family="Arial" font-size="13" lengthAdjust="spacing" textLength="77.3145" x="273.3042" y="432.9297">publish driver</text></g><path d="M10,452.6846 L70.1709,452.6846 L70.1709,459.6333 L60.1709,469.6333 L10,469.6333 L10,452.6846" fill="#EEEEEE" style="stroke:#000000;stroke-width:1.5;"/><rect fill="none" height="102.4951" style="stroke:#000000;stroke-width:1.5;" width="721.9136" x="10" y="452.6846"/><text fill="#000000" font-family="Arial" font-size="13" font-weight="bold" lengthAdjust="spacing" textLength="15.1709" x="25" y="465.8784">alt</text><text fill="#000000" font-family="Arial" font-size="11" font-weight="bold" lengthAdjust="spacing" textLength="118.5615" x="85.1709" y="465.0024">[Kh&#244;ng t&#236;m th&#7845;y t&#224;i x&#7871;]</text><g class="message" data-entity-1="part2" data-entity-2="part5" id="msg9"><polygon fill="#52606D" points="657,486.582,667,490.582,657,494.582,661,490.582" style="stroke:#52606D;stroke-width:1;"/><line style="stroke:#52606D;stroke-width:1;" x1="266.3042" x2="663" y1="490.582" y2="490.582"/><text fill="#000000" font-family="Arial" font-size="13" lengthAdjust="spacing" textLength="65.7363" x="273.3042" y="485.8271">verify_error</text></g><line style="stroke:#000000;stroke-width:1;stroke-dasharray:2,2;" x1="10" x2="731.9136" y1="499.582" y2="499.582"/><text fill="#000000" font-family="Arial" font-size="11" font-weight="bold" lengthAdjust="spacing" textLength="53.1738" x="15" y="509.8999">[C&#243; t&#224;i x&#7871;]</text><g class="message" data-entity-1="part1" data-entity-2="part1" id="msg10"><line style="stroke:#52606D;stroke-width:1;" x1="73.1963" x2="115.1963" y1="534.1797" y2="534.1797"/><line style="stroke:#52606D;stroke-width:1;" x1="115.1963" x2="115.1963" y1="534.1797" y2="547.1797"/><line style="stroke:#52606D;stroke-width:1;" x1="74.1963" x2="115.1963" y1="547.1797" y2="547.1797"/><polygon fill="#52606D" points="84.1963,543.1797,74.1963,547.1797,84.1963,551.1797,80.1963,547.1797" style="stroke:#52606D;stroke-width:1;"/><text fill="#000000" font-family="Arial" font-size="13" lengthAdjust="spacing" textLength="118.5044" x="80.1963" y="529.4248">X&#225;c minh khu&#244;n m&#7863;t</text></g><rect fill="#EEEEEE" height="3" style="stroke:#EEEEEE;stroke-width:1;" width="860.1099" x="0" y="582.6541"/><line style="stroke:#000000;stroke-width:1;" x1="0" x2="860.1099" y1="582.6541" y2="582.6541"/><line style="stroke:#000000;stroke-width:1;" x1="0" x2="860.1099" y1="585.6541" y2="585.6541"/><rect fill="#EEEEEE" height="22.9487" style="stroke:#000000;stroke-width:2;" width="149.8208" x="355.1445" y="572.1797"/><text fill="#000000" font-family="Arial" font-size="13" font-weight="bold" lengthAdjust="spacing" textLength="132.209" x="361.1445" y="588.3735">Phi&#234;n l&#225;i v&#224; c&#7843;nh b&#225;o</text><g class="message" data-entity-1="part1" data-entity-2="part2" id="msg11"><polygon fill="#52606D" points="254.3042,622.0771,264.3042,626.0771,254.3042,630.0771,258.3042,626.0771" style="stroke:#52606D;stroke-width:1;"/><line style="stroke:#52606D;stroke-width:1;" x1="73.1963" x2="260.3042" y1="626.0771" y2="626.0771"/><text fill="#000000" font-family="Arial" font-size="13" lengthAdjust="spacing" textLength="76.5908" x="80.1963" y="621.3223">session_start</text></g><g class="message" data-entity-1="part2" data-entity-2="part3" id="msg12"><polygon fill="#52606D" points="419.2095,651.0259,429.2095,655.0259,419.2095,659.0259,423.2095,655.0259" style="stroke:#52606D;stroke-width:1;"/><line style="stroke:#52606D;stroke-width:1;" x1="266.3042" x2="425.2095" y1="655.0259" y2="655.0259"/><text fill="#000000" font-family="Arial" font-size="13" lengthAdjust="spacing" textLength="135.1289" x="273.3042" y="650.271">start_or_reuse_session</text></g><g class="message" data-entity-1="part3" data-entity-2="part4" id="msg13"><polygon fill="#52606D" points="569.6865,679.9746,579.6865,683.9746,569.6865,687.9746,573.6865,683.9746" style="stroke:#52606D;stroke-width:1;"/><line style="stroke:#52606D;stroke-width:1;" x1="431.2095" x2="575.6865" y1="683.9746" y2="683.9746"/><text fill="#000000" font-family="Arial" font-size="13" lengthAdjust="spacing" textLength="75.2007" x="438.2095" y="679.2197">L&#432;u phi&#234;n l&#225;i</text></g><g class="message" data-entity-1="part2" data-entity-2="part5" id="msg14"><polygon fill="#52606D" points="657,708.9233,667,712.9233,657,716.9233,661,712.9233" style="stroke:#52606D;stroke-width:1;"/><line style="stroke:#52606D;stroke-width:1;" x1="266.3042" x2="663" y1="712.9233" y2="712.9233"/><text fill="#000000" font-family="Arial" font-size="13" lengthAdjust="spacing" textLength="76.5908" x="273.3042" y="708.1685">session_start</text></g><g class="message" data-entity-1="part5" data-entity-2="part6" id="msg15"><polygon fill="#52606D" points="790.8652,737.8721,800.8652,741.8721,790.8652,745.8721,794.8652,741.8721" style="stroke:#52606D;stroke-width:1;"/><line style="stroke:#52606D;stroke-width:1;" x1="669" x2="796.8652" y1="741.8721" y2="741.8721"/><text fill="#000000" font-family="Arial" font-size="13" lengthAdjust="spacing" textLength="88.1816" x="676" y="737.1172">C&#7853;p nh&#7853;t phi&#234;n</text></g><path d="M10,756.8721 L82.4346,756.8721 L82.4346,763.8208 L72.4346,773.8208 L10,773.8208 L10,756.8721" fill="#EEEEEE" style="stroke:#000000;stroke-width:1.5;"/><rect fill="none" height="161.6924" style="stroke:#000000;stroke-width:1.5;" width="840.1099" x="10" y="756.8721"/><text fill="#000000" font-family="Arial" font-size="13" font-weight="bold" lengthAdjust="spacing" textLength="27.4346" x="25" y="770.0659">loop</text><text fill="#000000" font-family="Arial" font-size="11" font-weight="bold" lengthAdjust="spacing" textLength="86.1577" x="97.4346" y="769.1899">[Trong phi&#234;n l&#225;i]</text><g class="message" data-entity-1="part1" data-entity-2="part2" id="msg16"><polygon fill="#52606D" points="254.3042,790.7695,264.3042,794.7695,254.3042,798.7695,258.3042,794.7695" style="stroke:#52606D;stroke-width:1;"/><line style="stroke:#52606D;stroke-width:1;" x1="73.1963" x2="260.3042" y1="794.7695" y2="794.7695"/><text fill="#000000" font-family="Arial" font-size="13" lengthAdjust="spacing" textLength="129.6826" x="80.1963" y="790.0146">alert metrics + AI state</text></g><g class="message" data-entity-1="part2" data-entity-2="part3" id="msg17"><polygon fill="#52606D" points="419.2095,819.7183,429.2095,823.7183,419.2095,827.7183,423.2095,823.7183" style="stroke:#52606D;stroke-width:1;"/><line style="stroke:#52606D;stroke-width:1;" x1="266.3042" x2="425.2095" y1="823.7183" y2="823.7183"/><text fill="#000000" font-family="Arial" font-size="13" lengthAdjust="spacing" textLength="140.9053" x="273.3042" y="818.9634">create_drowsiness_alert</text></g><g class="message" data-entity-1="part3" data-entity-2="part4" id="msg18"><polygon fill="#52606D" points="569.6865,848.667,579.6865,852.667,569.6865,856.667,573.6865,852.667" style="stroke:#52606D;stroke-width:1;"/><line style="stroke:#52606D;stroke-width:1;" x1="431.2095" x2="575.6865" y1="852.667" y2="852.667"/><text fill="#000000" font-family="Arial" font-size="13" lengthAdjust="spacing" textLength="80.2661" x="438.2095" y="847.9121">L&#432;u c&#7843;nh b&#225;o</text></g><g class="message" data-entity-1="part2" data-entity-2="part5" id="msg19"><polygon fill="#52606D" points="657,877.6157,667,881.6157,657,885.6157,661,881.6157" style="stroke:#52606D;stroke-width:1;"/><line style="stroke:#52606D;stroke-width:1;" x1="266.3042" x2="663" y1="881.6157" y2="881.6157"/><text fill="#000000" font-family="Arial" font-size="13" lengthAdjust="spacing" textLength="70.0972" x="273.3042" y="876.8608">publish alert</text></g><g class="message" data-entity-1="part5" data-entity-2="part6" id="msg20"><polygon fill="#52606D" points="790.8652,906.5645,800.8652,910.5645,790.8652,914.5645,794.8652,910.5645" style="stroke:#52606D;stroke-width:1;"/><line style="stroke:#52606D;stroke-width:1;" x1="669" x2="796.8652" y1="910.5645" y2="910.5645"/><text fill="#000000" font-family="Arial" font-size="13" lengthAdjust="spacing" textLength="109.8652" x="676" y="905.8096">C&#7853;p nh&#7853;t c&#7843;nh b&#225;o</text></g><rect fill="#EEEEEE" height="3" style="stroke:#EEEEEE;stroke-width:1;" width="860.1099" x="0" y="946.0388"/><line style="stroke:#000000;stroke-width:1;" x1="0" x2="860.1099" y1="946.0388" y2="946.0388"/><line style="stroke:#000000;stroke-width:1;" x1="0" x2="860.1099" y1="949.0388" y2="949.0388"/><rect fill="#EEEEEE" height="22.9487" style="stroke:#000000;stroke-width:2;" width="130.2891" x="364.9104" y="935.5645"/><text fill="#000000" font-family="Arial" font-size="13" font-weight="bold" lengthAdjust="spacing" textLength="112.6772" x="370.9104" y="951.7583">K&#7871;t th&#250;c v&#224; offline</text><g class="message" data-entity-1="part1" data-entity-2="part2" id="msg21"><polygon fill="#52606D" points="254.3042,985.4619,264.3042,989.4619,254.3042,993.4619,258.3042,989.4619" style="stroke:#52606D;stroke-width:1;"/><line style="stroke:#52606D;stroke-width:1;" x1="73.1963" x2="260.3042" y1="989.4619" y2="989.4619"/><text fill="#000000" font-family="Arial" font-size="13" lengthAdjust="spacing" textLength="72.998" x="80.1963" y="984.707">session_end</text></g><g class="message" data-entity-1="part2" data-entity-2="part3" id="msg22"><polygon fill="#52606D" points="419.2095,1014.4106,429.2095,1018.4106,419.2095,1022.4106,423.2095,1018.4106" style="stroke:#52606D;stroke-width:1;"/><line style="stroke:#52606D;stroke-width:1;" x1="266.3042" x2="425.2095" y1="1018.4106" y2="1018.4106"/><text fill="#000000" font-family="Arial" font-size="13" lengthAdjust="spacing" textLength="122.8462" x="273.3042" y="1013.6558">close_active_session</text></g><g class="message" data-entity-1="part3" data-entity-2="part4" id="msg23"><polygon fill="#52606D" points="569.6865,1043.3594,579.6865,1047.3594,569.6865,1051.3594,573.6865,1047.3594" style="stroke:#52606D;stroke-width:1;"/><line style="stroke:#52606D;stroke-width:1;" x1="431.2095" x2="575.6865" y1="1047.3594" y2="1047.3594"/><text fill="#000000" font-family="Arial" font-size="13" lengthAdjust="spacing" textLength="126.4771" x="438.2095" y="1042.6045">C&#7853;p nh&#7853;t checkout_at</text></g><g class="message" data-entity-1="part2" data-entity-2="part5" id="msg24"><polygon fill="#52606D" points="657,1072.3081,667,1076.3081,657,1080.3081,661,1076.3081" style="stroke:#52606D;stroke-width:1;"/><line style="stroke:#52606D;stroke-width:1;" x1="266.3042" x2="663" y1="1076.3081" y2="1076.3081"/><text fill="#000000" font-family="Arial" font-size="13" lengthAdjust="spacing" textLength="72.998" x="273.3042" y="1071.5532">session_end</text></g><g class="message" data-entity-1="part1" data-entity-2="part2" id="msg25"><line style="stroke:#52606D;stroke-width:2;" x1="248.3042" x2="258.3042" y1="1100.2568" y2="1110.2568"/><line style="stroke:#52606D;stroke-width:2;" x1="248.3042" x2="258.3042" y1="1110.2568" y2="1100.2568"/><line style="stroke:#52606D;stroke-width:1;" x1="73.1963" x2="253.3042" y1="1105.2568" y2="1105.2568"/><text fill="#000000" font-family="Arial" font-size="13" lengthAdjust="spacing" textLength="62.1499" x="80.1963" y="1100.502">disconnect</text></g><g class="message" data-entity-1="part2" data-entity-2="part5" id="msg26"><polygon fill="#52606D" points="657,1130.2056,667,1134.2056,657,1138.2056,661,1134.2056" style="stroke:#52606D;stroke-width:1;"/><line style="stroke:#52606D;stroke-width:1;" x1="266.3042" x2="663" y1="1134.2056" y2="1134.2056"/><text fill="#000000" font-family="Arial" font-size="13" lengthAdjust="spacing" textLength="105.1616" x="273.3042" y="1129.4507">connection=offline</text></g><?plantuml-src ZLHDRzD04BtxLupQ8q8feQtQI47AXosL1jIIYdAprlQaNkBiXjrrsghgbGid9EwqGbmGbP10GaeF72pnFy8lORss4pjf4Subtdap-zwR6Ikg8eG-lecH-GXFKKdEuC_R3t2Ctc5CM8zQbXnIDYQ2Z4269E2db9t0W4GIIn6F-CCJmMCMT7Z41QmxvYaX0XoGE58EP-ev6I6q12LHkNP1ui82_RI4uATvhQtwziPsrnptw01xb66RYm157jzjjRRQZwhn5JwRwSzW3eXGrATZmbIbJEcQCkGEPPlsTaRILrnKQjITdGsxMmekPzixJbtxScbP98t3MkxvInIISlPu3OWi-h1kxpexjcED5snWRTwOj4LzxWzHcPpZ_fnQ1Tz7cHRMJHOJwgF15cT5Ga0KyOX4ZJxiKPM1kcqThpiRpX81UuBQbLZM-dtR08k3kScviYwHeSU92B9onTlS0wlPXFtPz9S2DhjzJq65rBnvizjtq6nQkGiFdsXjZGgoTYfhhqsqTX5WAikbmQMbBT3WRhi1HydN4Kmmf7w4-N71iW4-PmnzfGreSXRfOR4Mt2h0PxFRZw1L6gOldBqkJ98hE4kkVHXH5e9AhYYSQLwhR0qw47I20iQ2UmMBtFa629Gycg2ROLplt1K36bX5Pt8TVRjdTuxoGYj2nh4NKHaMOOj42lR3v8VUJvKQeCBPzFFvWgOPo-KYEfCEpbtK-oOir5iDdUJxKiv2M_Ql0Q_c9Wp3MDy8ezdqfxAG1SQiWv0cNnX4oJKrdlcpwIUDzP9hlkgLp3IxKkanM_R97BfSk09ZYMwENVQfz_jR3EF5fIjMLU-OJsoQNlI-0PtPz6OCJBjse_9gbXLnFeOZmRMfvGkgjgGoI8H2mGYLeBw41z3QIyahBBa-L-KBr17TV7ugzG1AwPfi0xrBMic_EvjOJCAYolz8B5SjEfUjcGgJgMywnmU3T4NkxrgQkAmkuhfL-YkWn_A-ZbM9XEWFUQnSekxjN7fFmU3CC0Yep5VvdokU2VWB?></g></svg>